<svg width="20" height="10" viewBox="0 0 20 10" fill="none" xmlns="http://www.w3.org/2000/svg">
<path d="M19.7709 4.44711C19.7706 4.44687 19.7704 4.4466 19.7702 4.44636L15.688 0.383869C15.3821 0.0795337 14.8875 0.0806662 14.5831 0.386525C14.2787 0.692345 14.2799 1.18699 14.5857 1.49137L17.3265 4.21886H0.78125C0.349766 4.21886 0 4.56863 0 5.00011C0 5.4316 0.349766 5.78136 0.78125 5.78136H17.3264L14.5857 8.50886C14.2799 8.81323 14.2788 9.30788 14.5831 9.6137C14.8875 9.9196 15.3822 9.92065 15.688 9.61636L19.7702 5.55386C19.7704 5.55363 19.7706 5.55335 19.7709 5.55312C20.0769 5.24773 20.0759 4.75148 19.7709 4.44711Z" fill="white"/>
</svg>
